<mxfile host="app.diagrams.net" modified="2024-03-21T08:29:32.678Z" agent="Mozilla/5.0 (Windows NT 10.0; Win64; x64) AppleWebKit/537.36 (KHTML, like Gecko) Chrome/120.0.0.0 Safari/537.36" etag="bCutCNihOi1gunIGmjKu" version="24.0.7" type="github">
  <diagram name="Page-1" id="IYuXv-Pi5cnl-ZU0ZB3P">
    <mxGraphModel dx="1434" dy="750" grid="1" gridSize="10" guides="1" tooltips="1" connect="1" arrows="1" fold="1" page="1" pageScale="1" pageWidth="827" pageHeight="1169" math="0" shadow="0">
      <root>
        <mxCell id="0" />
        <mxCell id="1" parent="0" />
        <mxCell id="sqhxOelxg33xezJtGO6u-1" value="" style="endArrow=none;html=1;rounded=0;" parent="1" edge="1">
          <mxGeometry width="50" height="50" relative="1" as="geometry">
            <mxPoint x="390" y="312" as="sourcePoint" />
            <mxPoint x="390" y="170" as="targetPoint" />
          </mxGeometry>
        </mxCell>
        <mxCell id="sqhxOelxg33xezJtGO6u-2" value="" style="endArrow=none;html=1;rounded=0;" parent="1" edge="1">
          <mxGeometry width="50" height="50" relative="1" as="geometry">
            <mxPoint x="90" y="550" as="sourcePoint" />
            <mxPoint x="390" y="310" as="targetPoint" />
          </mxGeometry>
        </mxCell>
        <mxCell id="sqhxOelxg33xezJtGO6u-3" value="" style="endArrow=none;html=1;rounded=0;" parent="1" edge="1">
          <mxGeometry width="50" height="50" relative="1" as="geometry">
            <mxPoint x="710" y="560" as="sourcePoint" />
            <mxPoint x="390" y="310" as="targetPoint" />
          </mxGeometry>
        </mxCell>
        <mxCell id="sqhxOelxg33xezJtGO6u-4" value="" style="verticalLabelPosition=bottom;sketch=0;aspect=fixed;html=1;verticalAlign=top;strokeColor=none;align=center;outlineConnect=0;shape=mxgraph.citrix.database;" parent="1" vertex="1">
          <mxGeometry x="580" y="120" width="42.5" height="50" as="geometry" />
        </mxCell>
        <mxCell id="sqhxOelxg33xezJtGO6u-5" value="" style="verticalLabelPosition=bottom;sketch=0;aspect=fixed;html=1;verticalAlign=top;strokeColor=none;align=center;outlineConnect=0;shape=mxgraph.citrix.database;" parent="1" vertex="1">
          <mxGeometry x="170" y="130" width="42.5" height="50" as="geometry" />
        </mxCell>
        <mxCell id="sqhxOelxg33xezJtGO6u-6" value="" style="verticalLabelPosition=bottom;sketch=0;aspect=fixed;html=1;verticalAlign=top;strokeColor=none;align=center;outlineConnect=0;shape=mxgraph.citrix.database;" parent="1" vertex="1">
          <mxGeometry x="370" y="430" width="42.5" height="50" as="geometry" />
        </mxCell>
        <mxCell id="sqhxOelxg33xezJtGO6u-7" value="Gestion de la Collecte" style="text;html=1;align=center;verticalAlign=middle;whiteSpace=wrap;rounded=0;fillColor=#dae8fc;strokeColor=#6c8ebf;" parent="1" vertex="1">
          <mxGeometry x="540" y="20" width="160" height="30" as="geometry" />
        </mxCell>
        <mxCell id="sqhxOelxg33xezJtGO6u-8" value="Collecte" style="text;html=1;align=center;verticalAlign=middle;whiteSpace=wrap;rounded=0;fillColor=#d5e8d4;strokeColor=#82b366;" parent="1" vertex="1">
          <mxGeometry x="110" y="20" width="160" height="30" as="geometry" />
        </mxCell>
        <mxCell id="sqhxOelxg33xezJtGO6u-9" value="Post Collecte" style="text;html=1;align=center;verticalAlign=middle;whiteSpace=wrap;rounded=0;fillColor=#fff2cc;strokeColor=#d6b656;" parent="1" vertex="1">
          <mxGeometry x="311.25" y="610" width="160" height="30" as="geometry" />
        </mxCell>
        <mxCell id="sqhxOelxg33xezJtGO6u-10" value="Service de Collecte" style="ellipse;whiteSpace=wrap;html=1;" parent="1" vertex="1">
          <mxGeometry x="106.88" y="240" width="168.75" height="80" as="geometry" />
        </mxCell>
        <mxCell id="sqhxOelxg33xezJtGO6u-11" value="Omer Gestion" style="ellipse;whiteSpace=wrap;html=1;" parent="1" vertex="1">
          <mxGeometry x="540" y="230" width="120" height="80" as="geometry" />
        </mxCell>
        <mxCell id="sqhxOelxg33xezJtGO6u-12" value="Odic" style="ellipse;whiteSpace=wrap;html=1;" parent="1" vertex="1">
          <mxGeometry x="331.25" y="504.5" width="120" height="80" as="geometry" />
        </mxCell>
        <mxCell id="sqhxOelxg33xezJtGO6u-13" value="" style="endArrow=none;html=1;rounded=0;" parent="1" source="sqhxOelxg33xezJtGO6u-12" target="sqhxOelxg33xezJtGO6u-6" edge="1">
          <mxGeometry width="50" height="50" relative="1" as="geometry">
            <mxPoint x="230" y="540" as="sourcePoint" />
            <mxPoint x="280" y="490" as="targetPoint" />
          </mxGeometry>
        </mxCell>
        <mxCell id="sqhxOelxg33xezJtGO6u-14" value="" style="endArrow=none;html=1;rounded=0;exitX=0.5;exitY=0;exitDx=0;exitDy=0;" parent="1" source="sqhxOelxg33xezJtGO6u-10" target="sqhxOelxg33xezJtGO6u-5" edge="1">
          <mxGeometry width="50" height="50" relative="1" as="geometry">
            <mxPoint x="260" y="210" as="sourcePoint" />
            <mxPoint x="310" y="160" as="targetPoint" />
          </mxGeometry>
        </mxCell>
        <mxCell id="sqhxOelxg33xezJtGO6u-15" value="" style="endArrow=none;html=1;rounded=0;exitX=0.5;exitY=0;exitDx=0;exitDy=0;" parent="1" source="sqhxOelxg33xezJtGO6u-11" target="sqhxOelxg33xezJtGO6u-4" edge="1">
          <mxGeometry width="50" height="50" relative="1" as="geometry">
            <mxPoint x="490" y="240" as="sourcePoint" />
            <mxPoint x="540" y="190" as="targetPoint" />
          </mxGeometry>
        </mxCell>
        <mxCell id="sqhxOelxg33xezJtGO6u-20" value="DMZ" style="text;html=1;align=center;verticalAlign=middle;whiteSpace=wrap;rounded=0;" parent="1" vertex="1">
          <mxGeometry x="350" y="10" width="60" height="30" as="geometry" />
        </mxCell>
        <mxCell id="sqhxOelxg33xezJtGO6u-21" value="Zone Interne" style="text;html=1;align=center;verticalAlign=middle;whiteSpace=wrap;rounded=0;" parent="1" vertex="1">
          <mxGeometry x="361" y="720" width="60" height="30" as="geometry" />
        </mxCell>
        <mxCell id="sqhxOelxg33xezJtGO6u-22" value="&lt;h1 style=&quot;margin-top: 0px;&quot;&gt;Commentaires&lt;/h1&gt;&lt;div&gt;&lt;br&gt;&lt;/div&gt;&lt;div&gt;- Un Broker vient remplacer le service de suivi, en offrant un système générique de commutation de message plutôt qu&#39;un système custom basé sur sur du couplage de web service&lt;/div&gt;&lt;div&gt;&lt;br&gt;&lt;/div&gt;&lt;div&gt;- Le broker est habilité au franchement de zone, à l&#39;instar d&#39;ActiveMq, qui chez nous sert historiquement de passe plat entre les zones.&lt;/div&gt;&lt;div&gt;&lt;br&gt;&lt;/div&gt;&lt;div&gt;&lt;br&gt;&lt;/div&gt;&lt;div&gt;- L&#39;acte de validation et le calcul de l&#39;état produisent des messages à l&#39;attention du système de postCo et de gestion, probablement dans une queue spécifique à chaque service. Faut-il un système indépendant ou l&#39;API RSmart peut-elle suffire ?&lt;/div&gt;&lt;div&gt;&lt;br&gt;&lt;/div&gt;&lt;div&gt;- en contre partie,&amp;nbsp;&lt;/div&gt;&lt;div&gt;&lt;br&gt;&lt;/div&gt;&lt;div&gt;&lt;br&gt;&lt;/div&gt;" style="text;html=1;whiteSpace=wrap;overflow=hidden;rounded=0;" parent="1" vertex="1">
          <mxGeometry x="111" y="880" width="580" height="330" as="geometry" />
        </mxCell>
        <mxCell id="ho40uTTrcRCy7FI-jGrB-1" value="Broker" style="rounded=1;whiteSpace=wrap;html=1;" vertex="1" parent="1">
          <mxGeometry x="331" y="40" width="120" height="60" as="geometry" />
        </mxCell>
        <mxCell id="ho40uTTrcRCy7FI-jGrB-2" value="Avec un broker de messagerie" style="text;html=1;align=center;verticalAlign=middle;whiteSpace=wrap;rounded=0;fontSize=24;" vertex="1" parent="1">
          <mxGeometry x="180" y="800" width="380" height="30" as="geometry" />
        </mxCell>
        <mxCell id="ho40uTTrcRCy7FI-jGrB-4" value="Queue" style="rounded=1;whiteSpace=wrap;html=1;fillColor=#e1d5e7;strokeColor=#9673a6;" vertex="1" parent="1">
          <mxGeometry x="310" y="150" width="40" height="20" as="geometry" />
        </mxCell>
        <mxCell id="ho40uTTrcRCy7FI-jGrB-6" value="" style="curved=1;endArrow=classic;html=1;rounded=0;entryX=1;entryY=0.75;entryDx=0;entryDy=0;exitX=0;exitY=0;exitDx=0;exitDy=0;" edge="1" parent="1" source="sqhxOelxg33xezJtGO6u-12" target="ho40uTTrcRCy7FI-jGrB-4">
          <mxGeometry width="50" height="50" relative="1" as="geometry">
            <mxPoint x="379.9990140845071" y="530" as="sourcePoint" />
            <mxPoint x="440" y="210" as="targetPoint" />
            <Array as="points">
              <mxPoint x="350" y="380" />
            </Array>
          </mxGeometry>
        </mxCell>
        <mxCell id="ho40uTTrcRCy7FI-jGrB-21" value="Produce/Consume" style="edgeLabel;html=1;align=center;verticalAlign=middle;resizable=0;points=[];" vertex="1" connectable="0" parent="ho40uTTrcRCy7FI-jGrB-6">
          <mxGeometry x="0.2199" y="1" relative="1" as="geometry">
            <mxPoint as="offset" />
          </mxGeometry>
        </mxCell>
        <mxCell id="ho40uTTrcRCy7FI-jGrB-9" value="" style="curved=1;endArrow=classic;html=1;rounded=0;entryX=0.5;entryY=0;entryDx=0;entryDy=0;" edge="1" parent="1" source="sqhxOelxg33xezJtGO6u-5" target="ho40uTTrcRCy7FI-jGrB-16">
          <mxGeometry width="50" height="50" relative="1" as="geometry">
            <mxPoint x="192" y="140" as="sourcePoint" />
            <mxPoint x="280" y="80" as="targetPoint" />
            <Array as="points">
              <mxPoint x="180" y="110" />
              <mxPoint x="200" y="80" />
              <mxPoint x="310" y="80" />
            </Array>
          </mxGeometry>
        </mxCell>
        <mxCell id="ho40uTTrcRCy7FI-jGrB-18" value="Produce" style="edgeLabel;html=1;align=center;verticalAlign=middle;resizable=0;points=[];" vertex="1" connectable="0" parent="ho40uTTrcRCy7FI-jGrB-9">
          <mxGeometry x="-0.181" y="1" relative="1" as="geometry">
            <mxPoint as="offset" />
          </mxGeometry>
        </mxCell>
        <mxCell id="ho40uTTrcRCy7FI-jGrB-12" value="" style="curved=1;endArrow=classic;html=1;rounded=0;entryX=1;entryY=0.25;entryDx=0;entryDy=0;" edge="1" parent="1" source="sqhxOelxg33xezJtGO6u-4" target="ho40uTTrcRCy7FI-jGrB-16">
          <mxGeometry width="50" height="50" relative="1" as="geometry">
            <mxPoint x="540" y="170" as="sourcePoint" />
            <mxPoint x="510" y="150" as="targetPoint" />
            <Array as="points">
              <mxPoint x="550" y="110" />
              <mxPoint x="490" y="100" />
            </Array>
          </mxGeometry>
        </mxCell>
        <mxCell id="ho40uTTrcRCy7FI-jGrB-19" value="consume" style="edgeLabel;html=1;align=center;verticalAlign=middle;resizable=0;points=[];" vertex="1" connectable="0" parent="ho40uTTrcRCy7FI-jGrB-12">
          <mxGeometry x="-0.1355" relative="1" as="geometry">
            <mxPoint as="offset" />
          </mxGeometry>
        </mxCell>
        <mxCell id="ho40uTTrcRCy7FI-jGrB-16" value="Queue" style="rounded=1;whiteSpace=wrap;html=1;fillColor=#e1d5e7;strokeColor=#9673a6;" vertex="1" parent="1">
          <mxGeometry x="421" y="130" width="40" height="20" as="geometry" />
        </mxCell>
        <mxCell id="ho40uTTrcRCy7FI-jGrB-17" value="" style="curved=1;endArrow=classic;html=1;rounded=0;" edge="1" parent="1" source="sqhxOelxg33xezJtGO6u-5" target="ho40uTTrcRCy7FI-jGrB-4">
          <mxGeometry width="50" height="50" relative="1" as="geometry">
            <mxPoint x="390" y="310" as="sourcePoint" />
            <mxPoint x="400" y="140" as="targetPoint" />
            <Array as="points">
              <mxPoint x="220" y="90" />
              <mxPoint x="300" y="110" />
            </Array>
          </mxGeometry>
        </mxCell>
        <mxCell id="ho40uTTrcRCy7FI-jGrB-20" value="produce/consume" style="edgeLabel;html=1;align=center;verticalAlign=middle;resizable=0;points=[];" vertex="1" connectable="0" parent="ho40uTTrcRCy7FI-jGrB-17">
          <mxGeometry x="-0.2834" y="-7" relative="1" as="geometry">
            <mxPoint as="offset" />
          </mxGeometry>
        </mxCell>
      </root>
    </mxGraphModel>
  </diagram>
</mxfile>
